<?xml version="1.0" standalone="no"?>
<!DOCTYPE svg PUBLIC "-//W3C//DTD SVG 20010904//EN"
 "http://www.w3.org/TR/2001/REC-SVG-20010904/DTD/svg10.dtd">
<svg version="1.0" xmlns="http://www.w3.org/2000/svg"
 width="256.000000pt" height="256.000000pt" viewBox="0 0 256.000000 256.000000"
 preserveAspectRatio="xMidYMid meet">

<g transform="translate(0.000000,256.000000) scale(0.100000,-0.100000)"
fill="#fd6e1d" stroke="none">
<path d="M1472 1757 c-6 -7 -9 -23 -5 -35 4 -16 -2 -30 -21 -49 -31 -31 -33
-43 -7 -43 29 0 35 -17 11 -30 -12 -6 -20 -21 -20 -35 0 -20 5 -25 25 -25 28
0 33 -15 9 -24 -9 -3 -14 -13 -10 -21 7 -18 -20 -22 -194 -30 -74 -4 -299 -17
-499 -31 -201 -13 -366 -24 -368 -24 -2 0 -3 -7 -3 -15 0 -8 8 -15 18 -16 18
-1 19 0 -37 -21 -15 -5 -21 -12 -15 -18 5 -5 65 -1 149 10 195 27 221 23 40
-6 -82 -13 -161 -29 -175 -36 -44 -20 0 -20 126 1 183 31 262 40 494 56 210
14 295 17 275 9 -5 -2 -194 -24 -420 -49 -480 -53 -468 -51 -492 -77 l-18 -21
110 6 c61 4 267 22 460 42 357 36 392 38 384 30 -3 -2 -194 -22 -424 -45 -231
-22 -447 -44 -480 -49 -120 -17 19 -12 240 9 116 11 224 19 240 19 43 -2 -214
-35 -417 -54 -172 -16 -188 -19 -188 -34 0 -12 146 -21 182 -10 37 10 550 52
576 47 9 -2 -46 -9 -123 -17 -227 -21 -476 -50 -533 -63 -40 -9 -52 -15 -52
-30 0 -17 5 -18 49 -12 46 6 49 5 55 -20 4 -18 13 -26 29 -26 12 0 182 13 377
29 361 30 593 45 575 36 -5 -2 -201 -23 -435 -45 -455 -43 -589 -58 -602 -66
-4 -3 -8 -14 -8 -25 0 -26 -4 -26 586 27 368 33 514 42 531 35 14 -7 24 -23
29 -48 4 -21 14 -49 23 -62 12 -18 12 -26 3 -29 -17 -5 -15 -32 3 -32 9 0 18
-7 21 -15 4 -8 14 -15 24 -15 11 0 22 -4 25 -10 10 -16 38 -12 32 4 -9 22 31
44 106 60 18 4 27 13 27 26 0 13 7 20 20 20 11 0 23 7 26 15 3 8 21 19 39 25
18 6 35 19 38 30 6 24 117 97 169 110 21 6 38 17 38 25 0 8 17 27 38 42 21 15
68 50 105 77 l66 50 -40 38 c-21 21 -42 38 -47 38 -4 0 -39 23 -77 51 -78 57
-274 175 -440 266 -184 100 -201 107 -223 80z m98 -57 c-8 -5 -26 -10 -40 -10
-20 0 -22 2 -10 10 8 5 26 10 40 10 20 0 22 -2 10 -10z m90 -35 c14 -8 19 -14
10 -14 -8 0 -24 6 -34 14 -25 19 -9 19 24 0z m-93 -131 c-3 -3 -12 -4 -19 -1
-8 3 -5 6 6 6 11 1 17 -2 13 -5z m411 -46 c74 -46 118 -78 108 -78 -3 0 -23
11 -44 25 -29 19 -52 25 -105 26 -40 1 -73 -3 -80 -10 -6 -6 -17 -11 -25 -11
-21 0 7 25 43 37 22 8 29 16 28 32 -2 11 0 21 2 21 3 0 36 -19 73 -42z m-140
25 c-10 -2 -26 -2 -35 0 -10 3 -2 5 17 5 19 0 27 -2 18 -5z m-85 -10 c-13 -2
-33 -2 -45 0 -13 2 -3 4 22 4 25 0 35 -2 23 -4z m-90 -10 c-13 -2 -33 -2 -45
0 -13 2 -3 4 22 4 25 0 35 -2 23 -4z m-196 -129 c-3 -3 -12 -4 -19 -1 -8 3 -5
6 6 6 11 1 17 -2 13 -5z m693 -4 c0 -5 -4 -10 -9 -10 -6 0 -13 5 -16 10 -3 6
1 10 9 10 9 0 16 -4 16 -10z m-390 -65 c-124 -18 -227 -31 -229 -29 -3 2 5 13
16 24 18 16 44 21 150 28 70 5 164 9 208 9 70 1 51 -4 -145 -32z m460 18 c14
-9 27 -18 29 -19 1 -1 0 -8 -4 -13 -4 -8 -11 -6 -21 4 -9 8 -26 15 -40 15 -23
0 -31 10 -17 23 10 11 27 8 53 -10z m-20 -63 c0 -9 -14 -14 -33 -11 -4 1 -116
-12 -249 -29 -133 -17 -251 -29 -263 -28 -20 3 202 36 420 63 61 7 113 13 118
14 4 1 7 -3 7 -9z m-1252 -7 c-10 -2 -28 -2 -40 0 -13 2 -5 4 17 4 22 1 32 -1
23 -4z m745 -10 c-7 -2 -19 -2 -25 0 -7 3 -2 5 12 5 14 0 19 -2 13 -5z m-126
-19 c-3 -3 -12 -4 -19 -1 -8 3 -5 6 6 6 11 1 17 -2 13 -5z m-247 -45 c-25 -4
-70 -7 -100 -7 l-55 1 60 7 c33 4 78 7 100 7 l40 0 -45 -8z m-173 -15 c-3 -3
-12 -4 -19 -1 -8 3 -5 6 6 6 11 1 17 -2 13 -5z m146 -21 c-13 -2 -33 -2 -45 0
-13 2 -3 4 22 4 25 0 35 -2 23 -4z m320 -10 c-7 -2 -21 -2 -30 0 -10 3 -4 5
12 5 17 0 24 -2 18 -5z m-1000 -20 c-13 -2 -33 -2 -45 0 -13 2 -3 4 22 4 25 0
35 -2 23 -4z m1270 -70 c-7 -2 -19 -2 -25 0 -7 3 -2 5 12 5 14 0 19 -2 13 -5z
m-60 -10 c-13 -2 -33 -2 -45 0 -13 2 -3 4 22 4 25 0 35 -2 23 -4z m-90 -10
c-13 -2 -35 -2 -50 0 -16 2 -5 4 22 4 28 0 40 -2 28 -4z m-55 -119 c-10 -9
-118 -21 -118 -13 0 4 21 10 48 12 26 2 53 4 61 5 8 1 12 -1 9 -4z"/>
</g>
</svg>
